<svg xmlns="http://www.w3.org/2000/svg" viewBox="0 0 1280 720">
    <style>
    .bg-floor { fill: #1b2430; }
    .building-wall { fill: #2d3847; }
    .building-wall-far { fill: #2d3847; }
    .office-glass { fill: #59a0ff; opacity: 0.2; }
    .sunset-glow { fill: #ffd86b; opacity: 0.4; }
    .window { fill: #59a0ff; opacity: 0.2; }
  </style>
<defs>
    
  </defs>
  
  
  <defs>
    <linearGradient id="sunset-grad" x1="0%" y1="0%" x2="0%" y2="100%">
      <stop offset="0%" style="stop-color:#1a1a2e;stop-opacity:1"></stop>
      <stop offset="50%" style="stop-color:#3a2a4c;stop-opacity:1"></stop>
      <stop offset="100%" style="stop-color:#ff7a4a;stop-opacity:0.3"></stop>
    </linearGradient>
  </defs>
  
  <rect width="1280" height="400" fill="url(#sunset-grad)"></rect>
  
  
  <rect x="0" y="400" width="1280" height="320" class="bg-floor"></rect>
  
  
  <polygon points="0,400 150,320 300,350 450,280 600,360 750,300 900,340 1050,310 1200,350 1280,330 1280,400" class="building-wall-far"></polygon>
  
  
  
  <rect x="900" y="200" width="380" height="500" class="building-wall"></rect>
  
  
  
  <rect x="920" y="220" width="40" height="40" class="window"></rect>
  <rect x="980" y="220" width="40" height="40" class="window"></rect>
  <rect x="1040" y="220" width="40" height="40" class="window"></rect>
  <rect x="1100" y="220" width="40" height="40" class="window"></rect>
  <rect x="1160" y="220" width="40" height="40" class="window"></rect>
  <rect x="1220" y="220" width="40" height="40" class="window"></rect>
  
  
  <rect x="920" y="280" width="40" height="40" class="window"></rect>
  <rect x="980" y="280" width="40" height="40" class="window"></rect>
  <rect x="1040" y="280" width="40" height="40" class="window"></rect>
  <rect x="1100" y="280" width="40" height="40" class="window"></rect>
  <rect x="1160" y="280" width="40" height="40" class="window"></rect>
  <rect x="1220" y="280" width="40" height="40" class="window"></rect>
  
  
  <rect x="920" y="340" width="40" height="40" class="window" opacity="0.7"></rect>
  <rect x="980" y="340" width="40" height="40" class="window" opacity="0.7"></rect>
  <rect x="1040" y="340" width="40" height="40" class="window" opacity="0.7"></rect>
  <rect x="1100" y="340" width="40" height="40" class="window" opacity="0.7"></rect>
  <rect x="1160" y="340" width="40" height="40" class="window" opacity="0.7"></rect>
  <rect x="1220" y="340" width="40" height="40" class="window" opacity="0.7"></rect>
  
  
  
  <rect x="1170" y="180" width="110" height="130" class="office-glass" stroke="#6a8aaa" stroke-width="3"></rect>
  <rect x="1175" y="185" width="100" height="120" fill="#5a7a9a" opacity="0.15"></rect>
  
  
  <line x1="1220" y1="185" x2="1220" y2="305" stroke="#6a8aaa" stroke-width="2" opacity="0.4"></line>
  <line x1="1175" y1="240" x2="1275" y2="240" stroke="#6a8aaa" stroke-width="1" opacity="0.3"></line>
  
  
  <rect x="1180" y="190" width="90" height="110" fill="#ff9955" opacity="0.08"></rect>
  
  
  <ellipse cx="1225" cy="240" rx="80" ry="60" class="sunset-glow"></ellipse>
  
  
  <polygon points="0,400 200,350 300,380 450,320 550,400" class="building-wall-far"></polygon>
  
  
  <ellipse cx="300" cy="150" rx="200" ry="80" fill="#ff8844" opacity="0.05"></ellipse>
  <ellipse cx="900" cy="120" rx="250" ry="60" fill="#ff7a44" opacity="0.06"></ellipse>
</svg>