<svg xmlns="http://www.w3.org/2000/svg" viewBox="0 0 1280 720">
    <style>
    .bg { fill: #14202b; }
    .cable { fill: #c0c4cb; }
    .dust-particle { fill: #3a4555; }
    .lights { fill: #ffd86b; opacity: 0.4; }
    .lights-off { fill: #ffd86b; opacity: 0.4; }
    .server { fill: #3a4555; }
    .server-front { fill: #3a4555; }
    .wall { fill: #2d3847; }
  </style>
<defs>
    
  </defs>
  
  
  <rect width="1280" height="720" class="bg"></rect>
  
  
  <rect x="0" y="0" width="200" height="720" class="wall"></rect>
  <rect x="1080" y="0" width="200" height="720" class="wall"></rect>
  <rect x="0" y="0" width="1280" height="100" class="wall"></rect>
  
  
  
  <g>
    
    <line x1="250" y1="150" x2="480" y2="150" class="cable" stroke="#2a3a4c" stroke-width="3"></line>
    <line x1="250" y1="200" x2="480" y2="200" class="cable" stroke="#2a3a4c" stroke-width="3"></line>
    <line x1="250" y1="250" x2="480" y2="250" class="cable" stroke="#2a3a4c" stroke-width="3"></line>
    <line x1="250" y1="300" x2="480" y2="300" class="cable" stroke="#2a3a4c" stroke-width="3"></line>
    <line x1="250" y1="350" x2="480" y2="350" class="cable" stroke="#2a3a4c" stroke-width="3"></line>
    <line x1="250" y1="400" x2="480" y2="400" class="cable" stroke="#2a3a4c" stroke-width="3"></line>
    <line x1="250" y1="450" x2="480" y2="450" class="cable" stroke="#2a3a4c" stroke-width="3"></line>
    <line x1="250" y1="500" x2="480" y2="500" class="cable" stroke="#2a3a4c" stroke-width="3"></line>
    <line x1="250" y1="550" x2="480" y2="550" class="cable" stroke="#2a3a4c" stroke-width="3"></line>
    <line x1="250" y1="600" x2="480" y2="600" class="cable" stroke="#2a3a4c" stroke-width="3"></line>
    
    
    <rect x="250" y="160" width="210" height="28" class="server" rx="2"></rect>
    <rect x="256" y="163" width="200" height="22" class="server-front" rx="1"></rect>
    <circle cx="270" cy="174" r="2" class="lights"></circle>
    <circle cx="285" cy="174" r="2" class="lights-off"></circle>
    <circle cx="300" cy="174" r="2" class="lights-off"></circle>
    
    <rect x="250" y="260" width="210" height="28" class="server" rx="2"></rect>
    <rect x="256" y="263" width="200" height="22" class="server-front" rx="1"></rect>
    <circle cx="270" cy="274" r="2" class="lights-off"></circle>
    <circle cx="285" cy="274" r="2" class="lights"></circle>
    
    <rect x="250" y="360" width="210" height="28" class="server" rx="2"></rect>
    <rect x="256" y="363" width="200" height="22" class="server-front" rx="1"></rect>
    <circle cx="270" cy="374" r="2" class="lights"></circle>
    <circle cx="285" cy="374" r="2" class="lights"></circle>
  </g>
  
  
  <g>
    <line x1="550" y1="150" x2="780" y2="150" class="cable" stroke="#2a3a4c" stroke-width="3"></line>
    <line x1="550" y1="200" x2="780" y2="200" class="cable" stroke="#2a3a4c" stroke-width="3"></line>
    <line x1="550" y1="250" x2="780" y2="250" class="cable" stroke="#2a3a4c" stroke-width="3"></line>
    <line x1="550" y1="300" x2="780" y2="300" class="cable" stroke="#2a3a4c" stroke-width="3"></line>
    <line x1="550" y1="350" x2="780" y2="350" class="cable" stroke="#2a3a4c" stroke-width="3"></line>
    <line x1="550" y1="400" x2="780" y2="400" class="cable" stroke="#2a3a4c" stroke-width="3"></line>
    <line x1="550" y1="450" x2="780" y2="450" class="cable" stroke="#2a3a4c" stroke-width="3"></line>
    <line x1="550" y1="500" x2="780" y2="500" class="cable" stroke="#2a3a4c" stroke-width="3"></line>
    <line x1="550" y1="550" x2="780" y2="550" class="cable" stroke="#2a3a4c" stroke-width="3"></line>
    <line x1="550" y1="600" x2="780" y2="600" class="cable" stroke="#2a3a4c" stroke-width="3"></line>
    
    <rect x="550" y="160" width="210" height="28" class="server" rx="2"></rect>
    <rect x="556" y="163" width="200" height="22" class="server-front" rx="1"></rect>
    <circle cx="570" cy="174" r="2" class="lights-off"></circle>
    <circle cx="585" cy="174" r="2" class="lights"></circle>
    <circle cx="600" cy="174" r="2" class="lights"></circle>
    
    <rect x="550" y="310" width="210" height="28" class="server" rx="2"></rect>
    <rect x="556" y="313" width="200" height="22" class="server-front" rx="1"></rect>
    <circle cx="570" cy="324" r="2" class="lights"></circle>
  </g>
  
  
  <g>
    <line x1="850" y1="150" x2="1080" y2="150" class="cable" stroke="#2a3a4c" stroke-width="3"></line>
    <line x1="850" y1="200" x2="1080" y2="200" class="cable" stroke="#2a3a4c" stroke-width="3"></line>
    <line x1="850" y1="250" x2="1080" y2="250" class="cable" stroke="#2a3a4c" stroke-width="3"></line>
    <line x1="850" y1="300" x2="1080" y2="300" class="cable" stroke="#2a3a4c" stroke-width="3"></line>
    <line x1="850" y1="350" x2="1080" y2="350" class="cable" stroke="#2a3a4c" stroke-width="3"></line>
    <line x1="850" y1="400" x2="1080" y2="400" class="cable" stroke="#2a3a4c" stroke-width="3"></line>
    
    <rect x="850" y="160" width="210" height="28" class="server" rx="2"></rect>
    <rect x="856" y="163" width="200" height="22" class="server-front" rx="1"></rect>
    <circle cx="870" cy="174" r="2" class="lights-off"></circle>
    <circle cx="885" cy="174" r="2" class="lights-off"></circle>
  </g>
  
  
  <path d="M 480 250 Q 550 280 550 250" class="cable" fill="none" opacity="0.5"></path>
  <path d="M 780 320 Q 850 340 850 300" class="cable" fill="none" opacity="0.5"></path>
  
  
  <circle cx="400" cy="200" r="1.5" class="dust-particle"></circle>
  <circle cx="600" cy="350" r="1" class="dust-particle"></circle>
  <circle cx="900" cy="280" r="1.2" class="dust-particle"></circle>
  <circle cx="350" cy="500" r="1" class="dust-particle"></circle>
  <circle cx="750" cy="450" r="1.3" class="dust-particle"></circle>
</svg>