<svg xmlns="http://www.w3.org/2000/svg" viewBox="0 0 256 256">
  <defs>
    
  </defs>
  
  
  <rect width="256" height="256" class="bg"></rect>
  
  
  <ellipse cx="128" cy="185" rx="52" ry="62" class="engineer-body"></ellipse>
  
  
  <circle cx="128" cy="100" r="32" class="engineer-face"></circle>
  
  
  <path d="M 105 72 Q 128 62 151 72" stroke="#6a7a8c" stroke-width="6" fill="none" stroke-linecap="round" opacity="0.8"></path>
  
  
  
  <circle cx="108" cy="65" r="10" class="goggles"></circle>
  <circle cx="108" cy="65" r="8" class="goggles-lens"></circle>
  
  
  <circle cx="148" cy="65" r="10" class="goggles"></circle>
  <circle cx="148" cy="65" r="8" class="goggles-lens"></circle>
  
  
  <line x1="118" y1="65" x2="138" y2="65" class="goggles"></line>
  
  
  <path d="M 105 56 Q 128 52 151 56" class="goggles"></path>
  
  
  <circle cx="118" cy="95" r="4" fill="#1a1f25"></circle>
  <circle cx="138" cy="95" r="4" fill="#1a1f25"></circle>
  <circle cx="119" cy="94" r="1.5" fill="#6dd39a"></circle>
  <circle cx="139" cy="94" r="1.5" fill="#6dd39a"></circle>
  
  
  <path d="M 118 110 Q 128 115 138 110" stroke="#5a6a7c" stroke-width="1.5" fill="none" stroke-linecap="round"></path>
  
  
  <path d="M 145 45 L 155 55 L 165 40" stroke="#6dd39a" stroke-width="4" fill="none" stroke-linecap="round" stroke-linejoin="round"></path>
  
  
  <ellipse cx="80" cy="170" rx="16" ry="42" class="engineer-body" transform="rotate(-25 80 170)"></ellipse>
  <ellipse cx="176" cy="170" rx="16" ry="42" class="engineer-body" transform="rotate(25 176 170)"></ellipse>
  
  
  <rect x="110" y="235" width="13" height="25" rx="6" class="engineer-body"></rect>
  <rect x="133" y="235" width="13" height="25" rx="6" class="engineer-body"></rect>
</svg>