<svg xmlns="http://www.w3.org/2000/svg" viewBox="0 0 256 256">
  <defs>
    
  </defs>
  
  
  <rect width="256" height="256" class="bg"></rect>
  
  
  <ellipse cx="128" cy="180" rx="55" ry="65" class="officer-body"></ellipse>
  
  
  <path d="M 110 140 L 115 155 L 141 155 L 146 140" class="officer-face" opacity="0.6"></path>
  
  
  <polygon points="118,155 138,155 140,185 116,185" class="tie"></polygon>
  
  
  <circle cx="128" cy="100" r="32" class="officer-face"></circle>
  
  
  <path d="M 105 72 Q 128 60 151 72" stroke="#7a8a9c" stroke-width="7" fill="none" stroke-linecap="round" opacity="0.85"></path>
  
  
  <circle cx="118" cy="95" r="4" fill="#3a4a5c"></circle>
  <circle cx="138" cy="95" r="4" fill="#3a4a5c"></circle>
  <circle cx="119" cy="93" r="1.5" fill="#1a1f25"></circle>
  <circle cx="139" cy="93" r="1.5" fill="#1a1f25"></circle>
  
  
  <path d="M 118 115 L 138 115" stroke="#5a6a7c" stroke-width="1.5" stroke-linecap="round"></path>
  
  
  <rect x="85" y="165" width="50" height="70" class="binder" rx="4"></rect>
  
  
  <line x1="88" y1="175" x2="133" y2="175" stroke="#3a4a5c" stroke-width="0.8" opacity="0.5"></line>
  <line x1="88" y1="185" x2="133" y2="185" stroke="#3a4a5c" stroke-width="0.8" opacity="0.5"></line>
  <line x1="88" y1="195" x2="133" y2="195" stroke="#3a4a5c" stroke-width="0.8" opacity="0.5"></line>
  <line x1="88" y1="205" x2="133" y2="205" stroke="#3a4a5c" stroke-width="0.8" opacity="0.5"></line>
  <line x1="88" y1="215" x2="133" y2="215" stroke="#3a4a5c" stroke-width="0.8" opacity="0.5"></line>
  <line x1="88" y1="225" x2="133" y2="225" stroke="#3a4a5c" stroke-width="0.8" opacity="0.5"></line>
  
  
  <rect x="95" y="215" width="34" height="12" class="binder-pages" rx="1"></rect>
  <text x="112" y="223" class="binder-text" text-anchor="middle" font-weight="bold">COMPLIANCE</text>
  
  
  <ellipse cx="176" cy="165" rx="16" ry="40" class="officer-body" transform="rotate(35 176 165)"></ellipse>
  
  
  <ellipse cx="85" cy="170" rx="16" ry="35" class="officer-body" transform="rotate(-20 85 170)"></ellipse>
  
  
  <rect x="110" y="235" width="13" height="25" rx="6" class="officer-body"></rect>
  <rect x="133" y="235" width="13" height="25" rx="6" class="officer-body"></rect>
</svg>