<svg xmlns="http://www.w3.org/2000/svg" viewBox="0 0 256 256">
  <defs>
    
  </defs>
  
  
  <rect width="256" height="256" class="bg"></rect>
  
  
  <ellipse cx="128" cy="175" rx="48" ry="60" class="contractor-body"></ellipse>
  
  
  <ellipse cx="128" cy="100" rx="30" ry="35" class="nda-shadow"></ellipse>
  <circle cx="128" cy="105" r="28" class="contractor-face" opacity="0.7"></circle>
  
  
  <rect x="110" y="95" width="36" height="20" class="nda-shadow" opacity="0.8" rx="3"></rect>
  <line x1="115" y1="100" x2="141" y2="100" stroke="#5a6a7c" stroke-width="1" opacity="0.6"></line>
  <line x1="115" y1="105" x2="141" y2="105" stroke="#5a6a7c" stroke-width="1" opacity="0.6"></line>
  <line x1="115" y1="110" x2="141" y2="110" stroke="#5a6a7c" stroke-width="1" opacity="0.6"></line>
  
  
  <rect x="110" y="155" width="36" height="28" class="badge" rx="2"></rect>
  <rect x="113" y="158" width="30" height="22" fill="#0b0d10" rx="1"></rect>
  <text x="128" y="173" font-size="9" font-weight="bold" fill="#ffd86b" text-anchor="middle">VISITOR</text>
  
  
  <path d="M 110 140 L 115 150 L 141 150 L 146 140" class="contractor-body" opacity="0.6"></path>
  
  
  <ellipse cx="85" cy="170" rx="14" ry="42" class="contractor-body" transform="rotate(-20 85 170)"></ellipse>
  <ellipse cx="171" cy="170" rx="14" ry="42" class="contractor-body" transform="rotate(20 171 170)"></ellipse>
  
  
  <rect x="115" y="225" width="12" height="30" rx="6" class="contractor-body"></rect>
  <rect x="129" y="225" width="12" height="30" rx="6" class="contractor-body"></rect>
</svg>