<svg xmlns="http://www.w3.org/2000/svg" viewBox="0 0 256 256">
    <style>
    .armor { fill: #d9b38c; }
    .bg { fill: none; }
    .gauntlet { fill: #59a0ff; }
    .helmet { fill: #59a0ff; }
    .pager { fill: #c0c4cb; }
    .warrior-body { fill: #59a0ff; opacity: 0.75; }
    .warrior-face { fill: #d9b38c; }
  </style>
<defs>
    
  </defs>
  
  
  <rect width="256" height="256" class="bg"></rect>
  
  
  <ellipse cx="128" cy="185" rx="54" ry="64" class="armor"></ellipse>
  
  
  <path d="M 100 160 L 110 140 L 146 140 L 156 160" class="armor" fill="#7a6a5a"></path>
  <line x1="100" y1="160" x2="156" y2="160" stroke="#5a6a7c" stroke-width="1" opacity="0.5"></line>
  
  
  <circle cx="128" cy="100" r="32" class="warrior-face"></circle>
  
  
  
  <path d="M 105 75 Q 105 65 128 60 Q 151 65 151 75 L 155 95 Q 128 105 101 95 Z" class="helmet"></path>
  
  
  <line x1="108" y1="72" x2="148" y2="72" stroke="#5a6a7c" stroke-width="1" opacity="0.5"></line>
  <line x1="108" y1="80" x2="148" y2="80" stroke="#5a6a7c" stroke-width="1" opacity="0.5"></line>
  <line x1="108" y1="88" x2="148" y2="88" stroke="#5a6a7c" stroke-width="1" opacity="0.5"></line>
  
  
  <circle cx="112" cy="75" r="1.5" fill="#6dd39a" opacity="0.8"></circle>
  <circle cx="119" cy="75" r="1.5" fill="#ff7a59" opacity="0.8"></circle>
  <circle cx="126" cy="75" r="1.5" fill="#ffd86b" opacity="0.8"></circle>
  <circle cx="137" cy="75" r="1.5" fill="#6dd39a" opacity="0.8"></circle>
  <circle cx="144" cy="75" r="1.5" fill="#ff7a59" opacity="0.8"></circle>
  
  
  <circle cx="118" cy="98" r="4" fill="#1a1f25"></circle>
  <circle cx="138" cy="98" r="4" fill="#1a1f25"></circle>
  <circle cx="119" cy="97" r="1.8" fill="#59a0ff"></circle>
  <circle cx="139" cy="97" r="1.8" fill="#59a0ff"></circle>
  
  
  <path d="M 118 112 Q 128 114 138 112" stroke="#5a6a7c" stroke-width="1.5" fill="none" stroke-linecap="round"></path>
  
  
  <rect x="70" y="170" width="22" height="28" class="pager" rx="2"></rect>
  <rect x="73" y="173" width="16" height="10" fill="#1a1f25" opacity="0.7"></rect>
  <line x1="76" y1="186" x2="85" y2="186" stroke="#ff7a59" stroke-width="0.8" opacity="0.6"></line>
  <line x1="76" y1="191" x2="85" y2="191" stroke="#ff7a59" stroke-width="0.8" opacity="0.6"></line>
  
  
  <ellipse cx="75" cy="160" rx="20" ry="35" class="gauntlet" opacity="0.6"></ellipse>
  
  
  <ellipse cx="176" cy="170" rx="16" ry="48" class="warrior-body" transform="rotate(25 176 170)"></ellipse>
  
  
  <rect x="108" y="240" width="14" height="26" rx="7" class="warrior-body"></rect>
  <rect x="134" y="240" width="14" height="26" rx="7" class="warrior-body"></rect>
</svg>