<svg xmlns="http://www.w3.org/2000/svg" viewBox="0 0 256 256">
  <defs>
    
  </defs>
  
  
  <rect width="256" height="256" class="bg"></rect>
  
  
  <rect x="60" y="20" width="136" height="20" class="glow" rx="10"></rect>
  
  
  <circle cx="128" cy="100" r="32" class="janitor-face"></circle>
  
  
  <circle cx="120" cy="95" r="3" fill="#5a6a7c"></circle>
  <circle cx="136" cy="95" r="3" fill="#5a6a7c"></circle>
  <path d="M 120 110 Q 128 115 136 110" stroke="#5a6a7c" stroke-width="1.5" fill="none" stroke-linecap="round"></path>
  
  
  <path d="M 105 75 Q 128 68 151 75" stroke="#7a8a9c" stroke-width="5" fill="none" stroke-linecap="round" opacity="0.6"></path>
  
  
  <rect x="120" y="155" width="16" height="20" class="badge" rx="2"></rect>
  <rect x="122" y="157" width="12" height="16" fill="#0b0d10" rx="1"></rect>
  <text x="128" y="169" font-size="8" font-weight="bold" fill="#59a0ff" text-anchor="middle">ID</text>
  
  
  <ellipse cx="128" cy="175" rx="52" ry="58" class="janitor-body"></ellipse>
  
  
  <rect x="75" y="120" width="6" height="120" class="janitor-body" rx="3"></rect>
  
  
  <ellipse cx="78" cy="240" rx="16" ry="12" class="janitor-face" opacity="0.8"></ellipse>
  <path d="M 65 240 Q 78 245 91 240" stroke="#9ca7b3" stroke-width="2" fill="none" opacity="0.7" stroke-linecap="round"></path>
  
  
  <circle cx="85" cy="155" r="8" class="janitor-face"></circle>
  <circle cx="171" cy="170" r="8" class="janitor-face"></circle>
  
  
  <rect x="115" y="225" width="12" height="30" rx="6" class="janitor-body"></rect>
  <rect x="129" y="225" width="12" height="30" rx="6" class="janitor-body"></rect>
</svg>