<svg xmlns="http://www.w3.org/2000/svg" viewBox="0 0 256 256">
    <style>
    .bg { fill: none; }
    .dust-mote { fill: #ff7a59; }
    .face { fill: #d9b38c; }
    .printer-body { fill: #ff7a59; opacity: 0.75; }
  </style>
<defs>
    
  </defs>
  
  
  <rect width="256" height="256" class="bg"></rect>
  
  
  <ellipse cx="128" cy="95" rx="32" ry="38" class="face" transform="rotate(-15 128 95)"></ellipse>
  
  
  <ellipse cx="105" cy="90" rx="14" ry="20" class="face" transform="rotate(-30 105 90)"></ellipse>
  <path d="M 100 85 Q 95 90 100 100" stroke="#9ca7b3" stroke-width="2" fill="none"></path>
  
  
  <path d="M 105 65 Q 128 55 151 65" stroke="#7a8a9c" stroke-width="6" fill="none" stroke-linecap="round" opacity="0.7"></path>
  
  
  <circle cx="120" cy="90" r="3" fill="#5a6a7c"></circle>
  <circle cx="136" cy="90" r="3" fill="#5a6a7c"></circle>
  <path d="M 120 105 L 136 105" stroke="#5a6a7c" stroke-width="1.5" stroke-linecap="round"></path>
  
  
  <rect x="120" y="128" width="16" height="20" class="face"></rect>
  
  
  <ellipse cx="128" cy="175" rx="55" ry="60" class="printer-body"></ellipse>
  
  
  <ellipse cx="80" cy="160" rx="16" ry="40" class="printer-body" transform="rotate(-35 80 160)"></ellipse>
  <ellipse cx="176" cy="175" rx="16" ry="35" class="printer-body" transform="rotate(20 176 175)"></ellipse>
  
  
  <circle cx="110" cy="70" r="2.5" class="dust-mote"></circle>
  <circle cx="120" cy="60" r="2" class="dust-mote"></circle>
  <circle cx="145" cy="65" r="2.5" class="dust-mote"></circle>
  <circle cx="150" cy="75" r="1.8" class="dust-mote"></circle>
  
  
  <rect x="115" y="225" width="13" height="30" rx="6" class="printer-body"></rect>
  <rect x="128" y="225" width="13" height="30" rx="6" class="printer-body"></rect>
</svg>