<svg xmlns="http://www.w3.org/2000/svg" viewBox="0 0 256 256">
    <style>
    .bg { fill: none; }
    .hoodie { fill: #ffd86b; opacity: 0.75; }
    .keyboard { fill: #c0c4cb; }
    .rogue-body { fill: #ffd86b; opacity: 0.75; }
    .rogue-face { fill: #d9b38c; }
    .text-shadow { fill: #000000; opacity: 0.3; }
  </style>
<defs>
    
  </defs>
  
  
  <rect width="256" height="256" class="bg"></rect>
  
  
  <ellipse cx="128" cy="185" rx="52" ry="62" class="hoodie"></ellipse>
  
  
  <line x1="110" y1="140" x2="105" y2="160" stroke="#9ca7b3" stroke-width="1.5" opacity="0.5"></line>
  <line x1="146" y1="140" x2="151" y2="160" stroke="#9ca7b3" stroke-width="1.5" opacity="0.5"></line>
  
  
  <circle cx="128" cy="100" r="30" class="rogue-face" opacity="0.7"></circle>
  
  
  <path d="M 105 80 Q 128 65 151 80 L 155 120 Q 128 135 101 120 Z" class="hoodie"></path>
  
  
  <circle cx="118" cy="95" r="3" fill="#1a1f25" opacity="0.8"></circle>
  <circle cx="138" cy="95" r="3" fill="#1a1f25" opacity="0.8"></circle>
  <circle cx="119" cy="94" r="1.2" fill="#6dd39a" opacity="0.6"></circle>
  <circle cx="139" cy="94" r="1.2" fill="#6dd39a" opacity="0.6"></circle>
  
  
  <path d="M 120 108 Q 128 112 136 108" stroke="#5a6a7c" stroke-width="1" fill="none" stroke-linecap="round" opacity="0.7"></path>
  
  
  <rect x="85" y="160" width="50" height="32" class="keyboard" rx="3" opacity="0.7"></rect>
  
  
  <line x1="90" y1="168" x2="135" y2="168" stroke="#6a7a8c" stroke-width="0.8" opacity="0.5"></line>
  <line x1="90" y1="176" x2="135" y2="176" stroke="#6a7a8c" stroke-width="0.8" opacity="0.5"></line>
  <line x1="90" y1="184" x2="135" y2="184" stroke="#6a7a8c" stroke-width="0.8" opacity="0.5"></line>
  
  
  <text x="110" y="200" class="text-shadow" font-weight="bold" fill="#6dd39a" opacity="0.4">DROP TABLE</text>
  
  
  <rect x="85" y="160" width="50" height="32" fill="none" stroke="#6dd39a" stroke-width="0.8" opacity="0.4" rx="3"></rect>
  
  
  <ellipse cx="80" cy="175" rx="14" ry="35" class="rogue-body" transform="rotate(-30 80 175)"></ellipse>
  <ellipse cx="176" cy="175" rx="14" ry="35" class="rogue-body" transform="rotate(30 176 175)"></ellipse>
  
  
  <rect x="115" y="235" width="12" height="20" rx="6" class="rogue-body"></rect>
  <rect x="129" y="235" width="12" height="20" rx="6" class="rogue-body"></rect>
</svg>