<svg xmlns="http://www.w3.org/2000/svg" viewBox="0 0 256 256">
  <defs>
    
  </defs>
  
  
  <rect width="256" height="256" class="bg"></rect>
  
  
  <ellipse cx="128" cy="185" rx="55" ry="65" class="auditor-body"></ellipse>
  
  
  <path d="M 110 140 L 115 160 L 141 160 L 146 140" class="auditor-face" opacity="0.6"></path>
  <polygon points="120,160 136,160 138,190 118,190" class="tie"></polygon>
  
  
  <circle cx="128" cy="100" r="32" class="auditor-face"></circle>
  
  
  <path d="M 105 70 Q 128 58 151 70" stroke="#7a8a9c" stroke-width="7" fill="none" stroke-linecap="round" opacity="0.85"></path>
  
  
  <circle cx="118" cy="94" r="5" fill="#3a4a5c"></circle>
  <circle cx="138" cy="94" r="5" fill="#3a4a5c"></circle>
  <circle cx="119" cy="92" r="2" fill="#ffd86b"></circle>
  <circle cx="139" cy="92" r="2" fill="#ffd86b"></circle>
  
  
  <path d="M 118 113 Q 128 116 138 113" stroke="#5a6a7c" stroke-width="1.5" fill="none" stroke-linecap="round"></path>
  
  
  
  <circle cx="110" cy="170" r="22" class="mag-glass"></circle>
  
  <line x1="130" y1="190" x2="155" y2="215" class="mag-handle" stroke-linecap="round"></line>
  
  <circle cx="108" cy="168" r="6" fill="#ffd86b" opacity="0.3"></circle>
  
  
  <rect x="145" y="165" width="45" height="28" fill="#5a6a7c" opacity="0.5" rx="2"></rect>
  <line x1="150" y1="172" x2="185" y2="172" stroke="#9ca7b3" stroke-width="0.8" opacity="0.4"></line>
  <line x1="150" y1="178" x2="185" y2="178" stroke="#9ca7b3" stroke-width="0.8" opacity="0.4"></line>
  <line x1="150" y1="184" x2="185" y2="184" stroke="#9ca7b3" stroke-width="0.8" opacity="0.4"></line>
  
  
  <ellipse cx="80" cy="170" rx="16" ry="40" class="auditor-body" transform="rotate(-25 80 170)"></ellipse>
  <ellipse cx="176" cy="175" rx="16" ry="40" class="auditor-body" transform="rotate(25 176 175)"></ellipse>
  
  
  <rect x="110" y="240" width="13" height="20" rx="6" class="auditor-body"></rect>
  <rect x="133" y="240" width="13" height="20" rx="6" class="auditor-body"></rect>
</svg>