<svg xmlns="http://www.w3.org/2000/svg" viewBox="0 0 256 256">
    <style>
    .bg { fill: none; }
    .consultant-body { fill: #c77dff; opacity: 0.75; }
    .consultant-face { fill: #d9b38c; }
    .laser-ptr { fill: #c77dff; }
    .ppt { fill: #c77dff; }
    .shield { fill: #c77dff; }
    .suit { fill: #c77dff; opacity: 0.75; }
    .tie { fill: #c77dff; }
  </style>
<defs>
    
  </defs>
  
  
  <rect width="256" height="256" class="bg"></rect>
  
  
  <ellipse cx="128" cy="185" rx="54" ry="64" class="suit"></ellipse>
  
  
  <polygon points="120,155 136,155 138,190 118,190" class="tie"></polygon>
  
  
  <circle cx="128" cy="100" r="33" class="consultant-face"></circle>
  
  
  <path d="M 103 70 Q 128 58 153 70" stroke="#6a7a8c" stroke-width="7" fill="none" stroke-linecap="round" opacity="0.85"></path>
  
  
  <circle cx="117" cy="93" r="5" fill="#1a1f25"></circle>
  <circle cx="139" cy="93" r="5" fill="#1a1f25"></circle>
  <circle cx="118" cy="91" r="2.2" fill="#c77dff"></circle>
  <circle cx="140" cy="91" r="2.2" fill="#c77dff"></circle>
  
  
  <path d="M 117 110 Q 128 114 138 110" stroke="#5a6a7c" stroke-width="1.5" fill="none" stroke-linecap="round"></path>
  
  
  <path d="M 85 165 L 85 145 Q 85 135 95 130 L 95 200 Q 85 190 85 180 Z" class="shield"></path>
  <rect x="88" y="140" width="12" height="50" class="ppt" rx="1"></rect>
  
  
  <line x1="90" y1="150" x2="97" y2="150" stroke="#ff7a59" stroke-width="0.8" opacity="0.6"></line>
  <line x1="90" y1="160" x2="97" y2="160" stroke="#ff7a59" stroke-width="0.8" opacity="0.6"></line>
  <line x1="90" y1="170" x2="97" y2="170" stroke="#ff7a59" stroke-width="0.8" opacity="0.6"></line>
  <line x1="90" y1="180" x2="97" y2="180" stroke="#ff7a59" stroke-width="0.8" opacity="0.6"></line>
  
  
  
  <rect x="165" y="150" width="12" height="28" class="consultant-body" rx="2"></rect>
  
  
  <line x1="171" y1="150" x2="200" y2="100" class="laser-ptr"></line>
  <line x1="171" y1="148" x2="202" y2="98" class="laser-ptr" opacity="0.5"></line>
  <line x1="171" y1="152" x2="198" y2="102" class="laser-ptr" opacity="0.5"></line>
  
  
  <circle cx="200" cy="100" r="2" fill="#ffd86b" opacity="0.8"></circle>
  
  
  <ellipse cx="80" cy="175" rx="16" ry="42" class="consultant-body" transform="rotate(-30 80 175)"></ellipse>
  <ellipse cx="176" cy="165" rx="16" ry="42" class="consultant-body" transform="rotate(30 176 165)"></ellipse>
  
  
  <rect x="108" y="240" width="14" height="24" rx="7" class="suit"></rect>
  <rect x="134" y="240" width="14" height="24" rx="7" class="suit"></rect>
</svg>