<svg xmlns="http://www.w3.org/2000/svg" viewBox="0 0 256 256">
    <style>
    .badge { fill: #c0c4cb; }
    .bg { fill: none; }
    .keys { fill: #c0c4cb; }
    .sysadmin-body { fill: #6dd39a; opacity: 0.75; }
    .sysadmin-face { fill: #d9b38c; }
    .vest { fill: #6dd39a; opacity: 0.75; }
  </style>
<defs>
    
  </defs>
  
  
  <rect width="256" height="256" class="bg"></rect>
  
  
  <ellipse cx="128" cy="185" rx="58" ry="68" class="sysadmin-body"></ellipse>
  
  
  <ellipse cx="128" cy="185" rx="52" ry="62" class="vest"></ellipse>
  
  
  <rect x="105" y="165" width="12" height="16" fill="#5a6a7c" opacity="0.6" rx="2"></rect>
  <rect x="139" y="165" width="12" height="16" fill="#5a6a7c" opacity="0.6" rx="2"></rect>
  
  
  <circle cx="128" cy="100" r="34" class="sysadmin-face"></circle>
  
  
  <path d="M 103 70 Q 128 58 153 70" stroke="#6a7a8c" stroke-width="7" fill="none" stroke-linecap="round" opacity="0.75"></path>
  
  
  <circle cx="116" cy="95" r="5" fill="#3a4a5c"></circle>
  <circle cx="140" cy="95" r="5" fill="#3a4a5c"></circle>
  <circle cx="117" cy="93" r="2" fill="#9ca7b3" opacity="0.7"></circle>
  <circle cx="141" cy="93" r="2" fill="#9ca7b3" opacity="0.7"></circle>
  
  
  <path d="M 116 115 Q 128 112 140 115" stroke="#5a6a7c" stroke-width="1.5" fill="none" stroke-linecap="round"></path>
  
  
  
  <circle cx="165" cy="185" r="8" class="keys" stroke="#ffd86b" stroke-width="1"></circle>
  
  
  <rect x="158" y="195" width="4" height="18" class="keys" rx="1"></rect>
  <rect x="164" y="195" width="4" height="20" class="keys" rx="1"></rect>
  <rect x="170" y="195" width="4" height="16" class="keys" rx="1"></rect>
  
  
  <line x1="158" y1="200" x2="156" y2="200" stroke="#ffd86b" stroke-width="0.8"></line>
  <line x1="164" y1="200" x2="162" y2="200" stroke="#ffd86b" stroke-width="0.8"></line>
  <line x1="170" y1="200" x2="168" y2="200" stroke="#ffd86b" stroke-width="0.8"></line>
  
  
  <rect x="118" y="175" width="20" height="24" class="badge" rx="2"></rect>
  <rect x="120" y="177" width="16" height="20" fill="#0b0d10" rx="1"></rect>
  <text x="128" y="191" font-size="7" font-weight="bold" fill="#59a0ff" text-anchor="middle">ROOT</text>
  
  
  <ellipse cx="80" cy="175" rx="18" ry="48" class="sysadmin-body" transform="rotate(-20 80 175)"></ellipse>
  <ellipse cx="176" cy="175" rx="18" ry="48" class="sysadmin-body" transform="rotate(20 176 175)"></ellipse>
  
  
  <rect x="108" y="240" width="15" height="26" rx="7" class="sysadmin-body"></rect>
  <rect x="133" y="240" width="15" height="26" rx="7" class="sysadmin-body"></rect>
</svg>