<svg xmlns="http://www.w3.org/2000/svg" width="680" height="383" viewBox="0 0 680 383">
  <!-- CLUSTER OF FUCKERY — Background: Breakroom (with adjacent server closet) -->

  <!-- Walls & floor -->
  <rect width="680" height="383" fill="#d8d0c0"/>
  <rect x="0" y="0" width="680" height="32" fill="#c4bcac"/>
  <rect x="0" y="30" width="680" height="3" fill="#a89c88"/>
  <rect x="0" y="340" width="680" height="43" fill="#8a7a5c"/>
  <rect x="0" y="338" width="680" height="3" fill="#5a4a30"/>
  <!-- Linoleum seams -->
  <line x1="0" y1="360" x2="680" y2="360" stroke="#6a5a40" stroke-width="1" opacity="0.6"/>
  <line x1="170" y1="340" x2="170" y2="383" stroke="#6a5a40" stroke-width="1" opacity="0.6"/>
  <line x1="340" y1="340" x2="340" y2="383" stroke="#6a5a40" stroke-width="1" opacity="0.6"/>
  <line x1="510" y1="340" x2="510" y2="383" stroke="#6a5a40" stroke-width="1" opacity="0.6"/>

  <!-- Signage -->
  <rect x="240" y="6" width="200" height="20" rx="3" fill="#888480" stroke="#78746c" stroke-width="1"/>
  <text x="340" y="20" text-anchor="middle" font-family="sans-serif" font-size="10" fill="#e8e4dc">BREAKROOM — CLEAN UP AFTER YOURSELVES</text>

  <!-- ─────────── LEFT: KITCHEN COUNTER ─────────── -->
  <!-- Upper cabinets -->
  <rect x="10" y="40" width="260" height="70" fill="#b8a888" stroke="#8a7a5c" stroke-width="1.5"/>
  <line x1="90" y1="40" x2="90" y2="110" stroke="#8a7a5c" stroke-width="1.5"/>
  <line x1="180" y1="40" x2="180" y2="110" stroke="#8a7a5c" stroke-width="1.5"/>
  <circle cx="80" cy="75" r="2" fill="#5a4a30"/>
  <circle cx="100" cy="75" r="2" fill="#5a4a30"/>
  <circle cx="170" cy="75" r="2" fill="#5a4a30"/>
  <circle cx="190" cy="75" r="2" fill="#5a4a30"/>
  <circle cx="260" cy="75" r="2" fill="#5a4a30"/>

  <!-- Counter surface -->
  <rect x="10" y="210" width="260" height="12" fill="#a8a098" stroke="#6a6258" stroke-width="1.5"/>
  <rect x="10" y="222" width="260" height="118" fill="#bab2a2" stroke="#8a8272" stroke-width="1"/>

  <!-- Microwave -->
  <rect x="22" y="150" width="90" height="56" rx="3" fill="#2a2a2a" stroke="#111" stroke-width="2"/>
  <rect x="26" y="154" width="62" height="44" rx="2" fill="#1a1a1a"/>
  <rect x="30" y="158" width="54" height="10" rx="1" fill="#3a1a1a"/>
  <text x="57" y="166" text-anchor="middle" font-family="monospace" font-size="7" fill="#ff4444" font-weight="bold">88:88</text>
  <text x="57" y="184" text-anchor="middle" font-family="monospace" font-size="5" fill="#666">popcorn burn</text>
  <text x="57" y="192" text-anchor="middle" font-family="monospace" font-size="5" fill="#666">2019 — ongoing</text>
  <rect x="94" y="156" width="14" height="4" rx="1" fill="#444"/>
  <rect x="94" y="164" width="14" height="4" rx="1" fill="#444"/>
  <rect x="94" y="172" width="14" height="4" rx="1" fill="#444"/>
  <rect x="94" y="180" width="14" height="4" rx="1" fill="#444"/>

  <!-- Coffee pot -->
  <rect x="130" y="158" width="44" height="48" rx="2" fill="#1a1a1a" stroke="#0a0a0a" stroke-width="1.5"/>
  <rect x="134" y="164" width="36" height="24" rx="1" fill="#4a2a1a"/>
  <path d="M134,170 L170,170" stroke="#6a3a1a" stroke-width="1" opacity="0.7"/>
  <path d="M134,180 L170,180" stroke="#6a3a1a" stroke-width="1" opacity="0.7"/>
  <rect x="130" y="190" width="44" height="5" rx="1" fill="#2a2a2a"/>
  <rect x="142" y="195" width="20" height="4" rx="1" fill="#ff4444"/>
  <text x="152" y="210" text-anchor="middle" font-family="monospace" font-size="5" fill="#333">empty (always)</text>

  <!-- Toaster oven (suspicious) -->
  <rect x="188" y="168" width="68" height="38" rx="2" fill="#a8a098" stroke="#78746c" stroke-width="1.5"/>
  <rect x="192" y="172" width="52" height="26" rx="1" fill="#2a1a0a"/>
  <path d="M194,198 L242,198" stroke="#aa4a00" stroke-width="1.5"/>
  <circle cx="250" cy="192" r="3" fill="#ff8844"/>
  <text x="222" y="188" text-anchor="middle" font-family="monospace" font-size="5" fill="#884">DO NOT USE</text>

  <!-- Bulletin board (above counter, right of microwave) -->
  <rect x="280" y="44" width="140" height="110" fill="#b8a888" stroke="#8a7a5c" stroke-width="2"/>
  <rect x="283" y="47" width="134" height="104" fill="#d8b888" stroke="#a8866a" stroke-width="1"/>
  <!-- Stickies -->
  <rect x="290" y="54" width="58" height="34" rx="1" fill="#ffee88" stroke="#d8c460" stroke-width="1" transform="rotate(-3,319,71)"/>
  <text x="319" y="66" text-anchor="middle" font-family="monospace" font-size="6" fill="#664" transform="rotate(-3,319,71)">FRIDGE PURGE</text>
  <text x="319" y="74" text-anchor="middle" font-family="monospace" font-size="6" fill="#664" transform="rotate(-3,319,71)">FRIDAY 5PM</text>
  <text x="319" y="84" text-anchor="middle" font-family="monospace" font-size="5" fill="#aa4" transform="rotate(-3,319,71)">(it's tuesday)</text>

  <rect x="358" y="58" width="56" height="34" rx="1" fill="#ffd8d8" stroke="#d8a8a8" stroke-width="1" transform="rotate(2,386,75)"/>
  <text x="386" y="70" text-anchor="middle" font-family="monospace" font-size="6" fill="#844" transform="rotate(2,386,75)">DO NOT TOUCH</text>
  <text x="386" y="80" text-anchor="middle" font-family="monospace" font-size="6" fill="#844" transform="rotate(2,386,75)">THE THERMOSTAT</text>
  <text x="386" y="88" text-anchor="middle" font-family="monospace" font-size="5" fill="#a66" transform="rotate(2,386,75)">— BRENDA</text>

  <rect x="294" y="100" width="120" height="46" rx="1" fill="#e8f0e8" stroke="#c8d8c8" stroke-width="1"/>
  <text x="354" y="114" text-anchor="middle" font-family="sans-serif" font-size="7" fill="#4a6a4a" font-weight="bold">MANDATORY OFFICE FUN</text>
  <text x="354" y="124" text-anchor="middle" font-family="sans-serif" font-size="6" fill="#666">Trust Falls — Thurs 3pm</text>
  <text x="354" y="132" text-anchor="middle" font-family="sans-serif" font-size="6" fill="#666">Attendance: MANDATORY</text>
  <text x="354" y="141" text-anchor="middle" font-family="monospace" font-size="5" fill="#aa4">(the trust is the fall)</text>

  <!-- ─────────── CENTER: DOORWAY INTO SERVER CLOSET ─────────── -->
  <rect x="430" y="30" width="140" height="310" fill="#1a2030"/>
  <rect x="428" y="28" width="4" height="312" fill="#5a4a30"/>
  <rect x="568" y="28" width="4" height="312" fill="#5a4a30"/>
  <rect x="428" y="28" width="144" height="4" fill="#5a4a30"/>
  <!-- Sign above doorway -->
  <rect x="448" y="10" width="104" height="16" rx="2" fill="#3a1a1a" stroke="#6a2a2a" stroke-width="1"/>
  <text x="500" y="22" text-anchor="middle" font-family="monospace" font-size="8" fill="#ff6666" font-weight="bold">SERVER — STAFF ONLY</text>

  <!-- Server rack visible through doorway -->
  <rect x="450" y="60" width="100" height="250" fill="#1a1a1a" stroke="#2a2a2a" stroke-width="2"/>
  <!-- Rack units -->
  <rect x="454" y="68" width="92" height="22" rx="1" fill="#2a2a2a" stroke="#0a0a0a" stroke-width="1"/>
  <circle cx="460" cy="79" r="1.5" fill="#44ff44"/>
  <circle cx="466" cy="79" r="1.5" fill="#44ff44"/>
  <circle cx="472" cy="79" r="1.5" fill="#ffaa00"/>
  <rect x="480" y="74" width="60" height="10" rx="1" fill="#0a0a0a"/>

  <rect x="454" y="94" width="92" height="22" rx="1" fill="#2a2a2a" stroke="#0a0a0a" stroke-width="1"/>
  <circle cx="460" cy="105" r="1.5" fill="#44ff44"/>
  <circle cx="466" cy="105" r="1.5" fill="#ff4444"/>
  <circle cx="472" cy="105" r="1.5" fill="#ff4444"/>
  <rect x="480" y="100" width="60" height="10" rx="1" fill="#0a0a0a"/>

  <rect x="454" y="120" width="92" height="30" rx="1" fill="#2a2a2a" stroke="#0a0a0a" stroke-width="1"/>
  <rect x="458" y="124" width="84" height="4" rx="1" fill="#3a3a3a"/>
  <rect x="458" y="130" width="84" height="4" rx="1" fill="#3a3a3a"/>
  <rect x="458" y="136" width="84" height="4" rx="1" fill="#3a3a3a"/>
  <rect x="458" y="142" width="84" height="4" rx="1" fill="#3a3a3a"/>

  <!-- This is where Kevin's yogurt goes (label, since Kevin is rendered as a character) -->
  <rect x="454" y="154" width="92" height="4" rx="1" fill="#8a7a5c"/>

  <rect x="454" y="162" width="92" height="26" rx="1" fill="#2a2a2a" stroke="#0a0a0a" stroke-width="1"/>
  <circle cx="460" cy="175" r="1.5" fill="#44ff44"/>
  <circle cx="466" cy="175" r="1.5" fill="#44ff44"/>
  <rect x="476" y="168" width="64" height="4" rx="1" fill="#1a3a5a"/>
  <rect x="476" y="176" width="64" height="4" rx="1" fill="#1a3a5a"/>

  <rect x="454" y="192" width="92" height="28" rx="1" fill="#2a2a2a" stroke="#0a0a0a" stroke-width="1"/>
  <text x="500" y="204" text-anchor="middle" font-family="monospace" font-size="6" fill="#44ff44">PROD-DB-01</text>
  <text x="500" y="214" text-anchor="middle" font-family="monospace" font-size="6" fill="#ff4444">TEMP: 108°F</text>

  <rect x="454" y="224" width="92" height="26" rx="1" fill="#2a2a2a" stroke="#0a0a0a" stroke-width="1"/>
  <circle cx="460" cy="237" r="1.5" fill="#ffaa00"/>
  <circle cx="466" cy="237" r="1.5" fill="#ffaa00"/>
  <rect x="476" y="230" width="64" height="14" rx="1" fill="#1a1a1a"/>
  <text x="508" y="240" text-anchor="middle" font-family="monospace" font-size="5" fill="#888">fan: dying</text>

  <rect x="454" y="254" width="92" height="48" rx="1" fill="#2a2a2a" stroke="#0a0a0a" stroke-width="1"/>
  <circle cx="460" cy="268" r="1.5" fill="#44ff44"/>
  <circle cx="466" cy="268" r="1.5" fill="#ffaa00"/>
  <circle cx="472" cy="268" r="1.5" fill="#ff4444"/>
  <rect x="478" y="262" width="64" height="4" rx="1" fill="#3a3a3a"/>
  <rect x="478" y="270" width="64" height="4" rx="1" fill="#3a3a3a"/>
  <text x="500" y="290" text-anchor="middle" font-family="monospace" font-size="5" fill="#888">UPS — 12%</text>

  <!-- Cable chaos at bottom of rack -->
  <path d="M454,310 Q470,316 478,310 Q486,304 500,310 Q514,316 522,310 Q530,304 546,310" fill="none" stroke="#1a3a5a" stroke-width="2"/>
  <path d="M454,315 Q470,320 488,316 Q506,313 524,318 Q540,322 546,317" fill="none" stroke="#3a1a1a" stroke-width="2"/>
  <path d="M454,320 Q480,325 510,320 Q530,317 546,322" fill="none" stroke="#1a4a1a" stroke-width="2"/>

  <!-- Glow from server room into breakroom -->
  <rect x="430" y="30" width="140" height="310" fill="#ffaa00" opacity="0.04"/>

  <!-- ─────────── RIGHT: VENDING MACHINE + OUTLET ─────────── -->
  <rect x="582" y="130" width="84" height="210" fill="#5a2a2a" stroke="#3a1a1a" stroke-width="2"/>
  <rect x="586" y="134" width="76" height="16" rx="1" fill="#3a1a1a"/>
  <text x="624" y="146" text-anchor="middle" font-family="sans-serif" font-size="8" fill="#e8c888" font-weight="bold">SNAX</text>
  <rect x="586" y="154" width="76" height="140" fill="#1a1a1a"/>
  <!-- Stuck bag -->
  <rect x="594" y="164" width="24" height="18" rx="1" fill="#e8a840"/>
  <rect x="624" y="164" width="24" height="18" rx="1" fill="#4a8aca"/>
  <rect x="594" y="186" width="24" height="18" rx="1" fill="#ca4a4a"/>
  <rect x="624" y="186" width="24" height="18" rx="1" fill="#4aca4a"/>
  <!-- Stuck at spiral -->
  <rect x="594" y="208" width="24" height="18" rx="1" fill="#c8a460" transform="rotate(-15,606,217)"/>
  <text x="606" y="240" text-anchor="middle" font-family="monospace" font-size="5" fill="#888">E7: still stuck</text>
  <rect x="594" y="250" width="54" height="18" rx="1" fill="#4a2a1a"/>
  <rect x="586" y="300" width="76" height="30" fill="#3a1a1a"/>
  <rect x="590" y="306" width="68" height="18" rx="1" fill="#0a0a0a"/>
  <text x="624" y="318" text-anchor="middle" font-family="monospace" font-size="6" fill="#ff4444">INSERT COIN</text>

  <!-- Outlet strip on floor near server doorway (Brenda's heater plugs in here) -->
  <rect x="380" y="352" width="60" height="12" rx="1" fill="#e8e0d0" stroke="#a8a098" stroke-width="1"/>
  <circle cx="388" cy="358" r="1.5" fill="#1a1a1a"/>
  <circle cx="394" cy="358" r="1.5" fill="#1a1a1a"/>
  <circle cx="402" cy="358" r="1.5" fill="#1a1a1a"/>
  <circle cx="410" cy="358" r="1.5" fill="#1a1a1a"/>
  <circle cx="418" cy="358" r="1.5" fill="#1a1a1a"/>
  <circle cx="426" cy="358" r="1.5" fill="#1a1a1a"/>
  <!-- Little red light on the strip -->
  <circle cx="434" cy="358" r="1.8" fill="#ff4444"/>

  <!-- Ceiling flicker light -->
  <rect x="270" y="0" width="140" height="8" fill="#555"/>
  <rect x="272" y="4" width="136" height="4" fill="#fff6a8" opacity="0.5"/>

  <!-- Warning sign on wall -->
  <rect x="20" y="250" width="70" height="30" rx="2" fill="#ffee44" stroke="#aa8800" stroke-width="1.5"/>
  <text x="55" y="262" text-anchor="middle" font-family="sans-serif" font-size="7" fill="#442200" font-weight="bold">⚠ BREAKER #4</text>
  <text x="55" y="272" text-anchor="middle" font-family="sans-serif" font-size="5" fill="#664">tripped 3× this week</text>
</svg>
