<svg xmlns="http://www.w3.org/2000/svg" width="680" height="383" viewBox="0 0 680 383">
  <!-- CLUSTER OF FUCKERY — Background: Network Operations Center -->

  <!-- ── WALLS & ROOM ─────────────────────────────── -->
  <rect width="680" height="383" fill="#0b0f18"/>
  <rect x="0" y="0" width="680" height="18" fill="#090d12"/>
  <rect x="0" y="6" width="680" height="5" rx="2" fill="#111820"/>
  <rect x="30" y="7" width="120" height="3" rx="1" fill="#1a2535"/>
  <rect x="200" y="7" width="90" height="3" rx="1" fill="#1a2535"/>
  <rect x="380" y="7" width="110" height="3" rx="1" fill="#1a2535"/>
  <rect x="560" y="7" width="100" height="3" rx="1" fill="#1a2535"/>
  <rect x="0" y="362" width="680" height="21" fill="#080c10"/>
  <line x1="0" y1="362" x2="680" y2="362" stroke="#111" stroke-width="1.5"/>
  <line x1="136" y1="362" x2="136" y2="383" stroke="#111" stroke-width="1" opacity="0.5"/>
  <line x1="272" y1="362" x2="272" y2="383" stroke="#111" stroke-width="1" opacity="0.5"/>
  <line x1="408" y1="362" x2="408" y2="383" stroke="#111" stroke-width="1" opacity="0.5"/>
  <line x1="544" y1="362" x2="544" y2="383" stroke="#111" stroke-width="1" opacity="0.5"/>
  <rect x="0" y="320" width="680" height="4" fill="#0f151e"/>
  <rect x="0" y="324" width="680" height="38" fill="#0d1119"/>

  <!-- ── LEFT: MONITOR WALL ─────────────────────── -->
  <rect x="10" y="22" width="238" height="218" rx="4" fill="#0d1520" stroke="#1a2535" stroke-width="2"/>

  <!-- Screen 1: Network traffic -->
  <rect x="16" y="28" width="110" height="78" rx="3" fill="#060c14" stroke="#1e2d45" stroke-width="1.5"/>
  <rect x="19" y="31" width="104" height="72" rx="2" fill="#050a12"/>
  <text x="71" y="42" text-anchor="middle" font-family="monospace" font-size="7" fill="#00aaff" font-weight="bold">NETWORK TRAFFIC</text>
  <line x1="23" y1="48" x2="119" y2="48" stroke="#1a2535" stroke-width="1" opacity="0.5"/>
  <polyline points="23,90 31,82 39,86 47,74 55,78 63,68 71,72 79,62 87,70 95,58 103,66 111,54 119,60" fill="none" stroke="#00aaff" stroke-width="1.5"/>
  <polyline points="23,94 31,90 39,92 47,86 55,88 63,84 71,80 79,76 87,82 95,72 103,78 111,68 119,74" fill="none" stroke="#00cc44" stroke-width="1" opacity="0.6"/>
  <line x1="23" y1="98" x2="119" y2="98" stroke="#1a2535" stroke-width="1"/>
  <text x="22" y="62" font-family="monospace" font-size="4" fill="#334455">1G</text>
  <text x="22" y="78" font-family="monospace" font-size="4" fill="#334455">500M</text>
  <text x="22" y="94" font-family="monospace" font-size="4" fill="#334455">0</text>

  <!-- Screen 2: System status -->
  <rect x="132" y="28" width="110" height="78" rx="3" fill="#060c14" stroke="#1e2d45" stroke-width="1.5"/>
  <rect x="135" y="31" width="104" height="72" rx="2" fill="#050a12"/>
  <text x="187" y="42" text-anchor="middle" font-family="monospace" font-size="7" fill="#ffaa00" font-weight="bold">SYSTEM STATUS</text>
  <line x1="139" y1="48" x2="235" y2="48" stroke="#1a2535" stroke-width="1" opacity="0.5"/>
  <rect x="139" y="52" width="92" height="8" rx="2" fill="#0a1520"/>
  <rect x="139" y="52" width="82" height="8" rx="2" fill="#00cc44" opacity="0.25"/>
  <text x="143" y="59" font-family="monospace" font-size="5" fill="#00cc44">SERVER-A    OK</text>
  <rect x="139" y="63" width="92" height="8" rx="2" fill="#0a1520"/>
  <rect x="139" y="63" width="60" height="8" rx="2" fill="#ffaa00" opacity="0.25"/>
  <text x="143" y="70" font-family="monospace" font-size="5" fill="#ffaa00">SERVER-B  WARN</text>
  <rect x="139" y="74" width="92" height="8" rx="2" fill="#0a1520"/>
  <rect x="139" y="74" width="92" height="8" rx="2" fill="#ff3333" opacity="0.25"/>
  <text x="143" y="81" font-family="monospace" font-size="5" fill="#ff3333">UPS-01    CRIT</text>
  <rect x="139" y="85" width="92" height="8" rx="2" fill="#0a1520"/>
  <text x="143" y="92" font-family="monospace" font-size="5" fill="#556677">KEVIN     ????</text>

  <!-- Screen 3: Active incident -->
  <rect x="16" y="112" width="226" height="60" rx="3" fill="#060c14" stroke="#ff3333" stroke-width="1.5" opacity="0.8"/>
  <rect x="19" y="115" width="220" height="54" rx="2" fill="#0a0508"/>
  <text x="129" y="126" text-anchor="middle" font-family="monospace" font-size="6.5" fill="#ff4444" font-weight="bold">⚠  ACTIVE INCIDENT  ⚠</text>
  <line x1="23" y1="130" x2="235" y2="130" stroke="#ff3333" stroke-width="1" opacity="0.4"/>
  <text x="129" y="141" text-anchor="middle" font-family="monospace" font-size="5.5" fill="#ffaa00">Ticket #4471 — UPS-01 runtime: 4 min</text>
  <text x="129" y="152" text-anchor="middle" font-family="monospace" font-size="5" fill="#cc8800">Opened: Monday. Severity: P1 (was P3 Mon)</text>
  <text x="129" y="162" text-anchor="middle" font-family="monospace" font-size="5" fill="#668899">Assigned: Gary (ext 204) — unavailable</text>

  <!-- Screen 4: Uptime -->
  <rect x="16" y="178" width="110" height="56" rx="3" fill="#060c14" stroke="#1e2d45" stroke-width="1.5"/>
  <rect x="19" y="181" width="104" height="50" rx="2" fill="#050a12"/>
  <text x="71" y="192" text-anchor="middle" font-family="monospace" font-size="6" fill="#4488ff" font-weight="bold">UPTIME</text>
  <text x="71" y="210" text-anchor="middle" font-family="monospace" font-size="14" fill="#00ccff" font-weight="bold">99.1%</text>
  <text x="71" y="224" text-anchor="middle" font-family="monospace" font-size="4.5" fill="#334455">excludes "planned" outages</text>

  <!-- Screen 5: Jira -->
  <rect x="132" y="178" width="110" height="56" rx="3" fill="#060c14" stroke="#1e2d45" stroke-width="1.5"/>
  <rect x="135" y="181" width="104" height="50" rx="2" fill="#050a12"/>
  <text x="187" y="192" text-anchor="middle" font-family="monospace" font-size="6" fill="#6644ff" font-weight="bold">JIRA QUEUE</text>
  <text x="187" y="212" text-anchor="middle" font-family="monospace" font-size="16" fill="#ff6644" font-weight="bold">748</text>
  <text x="187" y="224" text-anchor="middle" font-family="monospace" font-size="4.5" fill="#334455">all marked "urgent"</text>

  <ellipse cx="129" cy="260" rx="110" ry="40" fill="#001833" opacity="0.3"/>

  <!-- ── CENTRE-BACK: MAIN DISPLAY WALL ─────────── -->
  <rect x="255" y="22" width="210" height="160" rx="4" fill="#080e18" stroke="#1a2535" stroke-width="2"/>
  <rect x="258" y="25" width="204" height="154" rx="3" fill="#040810"/>
  <text x="360" y="38" text-anchor="middle" font-family="monospace" font-size="6" fill="#223344">GLOBAL INFRASTRUCTURE VIEW</text>
  <path d="M275,70 Q285,55 305,58 Q318,55 322,70 Q318,85 305,88 Q288,85 275,70Z" fill="#1a2e1a" opacity="0.7"/>
  <path d="M328,60 Q345,50 368,52 Q382,50 390,60 Q395,78 385,90 Q372,98 355,95 Q335,90 328,75Z" fill="#1a2e1a" opacity="0.7"/>
  <path d="M390,65 Q400,58 415,62 Q420,70 415,82 Q405,88 393,82Z" fill="#1a2e1a" opacity="0.7"/>
  <path d="M300,100 Q315,95 328,100 Q332,115 325,125 Q312,130 300,120Z" fill="#1a2e1a" opacity="0.7"/>
  <path d="M340,100 Q358,95 375,100 Q382,115 378,130 Q362,138 345,132 Q335,120 340,100Z" fill="#1a2e1a" opacity="0.7"/>
  <line x1="258" y1="90" x2="462" y2="90" stroke="#0f2030" stroke-width="1"/>
  <line x1="258" y1="120" x2="462" y2="120" stroke="#0f2030" stroke-width="1"/>
  <line x1="310" y1="44" x2="310" y2="175" stroke="#0f2030" stroke-width="1"/>
  <line x1="360" y1="44" x2="360" y2="175" stroke="#0f2030" stroke-width="1"/>
  <line x1="410" y1="44" x2="410" y2="175" stroke="#0f2030" stroke-width="1"/>
  <circle cx="305" cy="72" r="4" fill="#ff3333" opacity="0.9"/>
  <circle cx="305" cy="72" r="8" fill="none" stroke="#ff3333" stroke-width="1" opacity="0.4"/>
  <circle cx="355" cy="68" r="3" fill="#ffaa00" opacity="0.8"/>
  <circle cx="355" cy="68" r="7" fill="none" stroke="#ffaa00" stroke-width="1" opacity="0.3"/>
  <circle cx="408" cy="75" r="3" fill="#00ccff" opacity="0.7"/>
  <circle cx="316" cy="112" r="2.5" fill="#00cc44" opacity="0.8"/>
  <rect x="258" y="160" width="204" height="16" rx="1" fill="#060e18"/>
  <text x="360" y="171" text-anchor="middle" font-family="monospace" font-size="5" fill="#334455">SYN 04:17:33 UTC  |  NODES: 247/248  |  ALERTS: 3 ACTIVE  |  GARY: UNREACHABLE</text>

  <!-- ── RIGHT: WHITEBOARD ─────────────────────── -->
  <rect x="476" y="22" width="116" height="140" rx="3" fill="#f0ede0" stroke="#888" stroke-width="2"/>
  <rect x="480" y="26" width="108" height="132" rx="2" fill="#f8f5e8"/>
  <text x="534" y="38" text-anchor="middle" font-family="monospace" font-size="6" fill="#444" font-weight="bold">INCIDENT LOG</text>
  <line x1="482" y1="42" x2="584" y2="42" stroke="#ccc" stroke-width="1"/>
  <text x="484" y="52" font-family="monospace" font-size="4.5" fill="#cc2200">MON: "minor blip"</text>
  <text x="484" y="62" font-family="monospace" font-size="4.5" fill="#cc2200">TUE: "still minor"</text>
  <text x="484" y="72" font-family="monospace" font-size="4.5" fill="#880000">WED: escalated??</text>
  <text x="484" y="82" font-family="monospace" font-size="4.5" fill="#333">THU: Gary called</text>
  <text x="484" y="92" font-family="monospace" font-size="4.5" fill="#1a7a1a">FRI: Gary fixed it</text>
  <text x="484" y="102" font-family="monospace" font-size="4.5" fill="#cc2200">SAT: down again</text>
  <text x="484" y="112" font-family="monospace" font-size="4.5" fill="#555">(nobody called)</text>
  <text x="484" y="122" font-family="monospace" font-size="4.5" fill="#888">SUN: ???</text>
  <line x1="482" y1="128" x2="584" y2="128" stroke="#ccc" stroke-width="1"/>
  <text x="534" y="138" text-anchor="middle" font-family="monospace" font-size="4" fill="#aaa">root cause: ¯\_(ツ)_/¯</text>
  <rect x="548" y="46" width="36" height="28" rx="1" fill="#ffff66" transform="rotate(4,566,60)"/>
  <text x="566" y="56" text-anchor="middle" font-family="monospace" font-size="4" fill="#333" transform="rotate(4,566,60)">DO NOT</text>
  <text x="566" y="63" text-anchor="middle" font-family="monospace" font-size="4" fill="#333" transform="rotate(4,566,60)">TOUCH</text>
  <text x="566" y="70" text-anchor="middle" font-family="monospace" font-size="3.5" fill="#666" transform="rotate(4,566,60)">- Brenda</text>

  <!-- ── RIGHT: SERVER RACK ─────────────────────── -->
  <rect x="604" y="18" width="68" height="306" rx="3" fill="#0e1520" stroke="#1a2535" stroke-width="2"/>
  <rect x="608" y="24" width="60" height="10" rx="1" fill="#080e18" stroke="#1a2535" stroke-width="1"/>
  <rect x="608" y="38" width="60" height="10" rx="1" fill="#080e18" stroke="#1a2535" stroke-width="1"/>
  <rect x="608" y="52" width="60" height="10" rx="1" fill="#080e18" stroke="#1a2535" stroke-width="1"/>
  <rect x="608" y="66" width="60" height="10" rx="1" fill="#080e18" stroke="#1a2535" stroke-width="1"/>
  <rect x="608" y="80" width="60" height="10" rx="1" fill="#080e18" stroke="#1a2535" stroke-width="1"/>
  <rect x="608" y="94" width="60" height="10" rx="1" fill="#080e18" stroke="#1a2535" stroke-width="1"/>
  <rect x="608" y="108" width="60" height="10" rx="1" fill="#080e18" stroke="#1a2535" stroke-width="1"/>
  <rect x="608" y="122" width="60" height="10" rx="1" fill="#080e18" stroke="#1a2535" stroke-width="1"/>
  <rect x="608" y="136" width="60" height="10" rx="1" fill="#080e18" stroke="#1a2535" stroke-width="1"/>
  <rect x="608" y="150" width="60" height="10" rx="1" fill="#080e18" stroke="#1a2535" stroke-width="1"/>
  <rect x="608" y="164" width="60" height="10" rx="1" fill="#080e18" stroke="#1a2535" stroke-width="1"/>
  <rect x="608" y="178" width="60" height="10" rx="1" fill="#080e18" stroke="#1a2535" stroke-width="1"/>
  <rect x="660" y="26" width="6" height="6" rx="3" fill="#00aaff" opacity="0.9"/>
  <rect x="660" y="40" width="6" height="6" rx="3" fill="#00ff88" opacity="0.85"/>
  <rect x="660" y="54" width="6" height="6" rx="3" fill="#00aaff" opacity="0.9"/>
  <rect x="660" y="68" width="6" height="6" rx="3" fill="#ff3333" opacity="0.85"/>
  <rect x="660" y="82" width="6" height="6" rx="3" fill="#00ff88" opacity="0.9"/>
  <rect x="660" y="96" width="6" height="6" rx="3" fill="#00aaff" opacity="0.8"/>
  <rect x="660" y="110" width="6" height="6" rx="3" fill="#ffaa00" opacity="0.85"/>
  <rect x="660" y="124" width="6" height="6" rx="3" fill="#00aaff" opacity="0.9"/>
  <rect x="660" y="138" width="6" height="6" rx="3" fill="#00ff88" opacity="0.85"/>
  <rect x="660" y="152" width="6" height="6" rx="3" fill="#00aaff" opacity="0.9"/>
  <rect x="660" y="166" width="6" height="6" rx="3" fill="#00ff88" opacity="0.8"/>
  <rect x="660" y="180" width="6" height="6" rx="3" fill="#ff3333" opacity="0.9"/>
  <rect x="604" y="18" width="3" height="306" rx="1" fill="#00aaff" opacity="0.3"/>

  <!-- ── STANDING DESK (foreground) ──────────────── -->
  <rect x="0" y="294" width="470" height="12" rx="3" fill="#1a2030" stroke="#111820" stroke-width="2"/>
  <rect x="4" y="296" width="460" height="3" rx="1" fill="#242a38" opacity="0.5"/>
  <rect x="14" y="306" width="8" height="56" rx="2" fill="#111820"/>
  <rect x="448" y="306" width="8" height="56" rx="2" fill="#111820"/>
  <!-- Outlook monitor -->
  <rect x="22" y="248" width="88" height="52" rx="3" fill="#080e18" stroke="#1a2535" stroke-width="1.5"/>
  <rect x="25" y="251" width="82" height="44" rx="2" fill="#050a12"/>
  <text x="66" y="267" text-anchor="middle" font-family="monospace" font-size="6" fill="#4488ff">OUTLOOK</text>
  <text x="66" y="278" text-anchor="middle" font-family="monospace" font-size="6" fill="#ff6644">332 unread</text>
  <text x="66" y="288" text-anchor="middle" font-family="monospace" font-size="5" fill="#334455">(all from Karen)</text>
  <rect x="60" y="300" width="12" height="5" rx="1" fill="#1a2535"/>
  <rect x="52" y="304" width="28" height="3" rx="1" fill="#111820"/>
  <!-- Terminal monitor -->
  <rect x="120" y="240" width="100" height="58" rx="3" fill="#080e18" stroke="#1a2535" stroke-width="1.5"/>
  <rect x="123" y="243" width="94" height="50" rx="2" fill="#050a12"/>
  <text x="170" y="258" text-anchor="middle" font-family="monospace" font-size="5.5" fill="#00ccff">TERMINAL</text>
  <text x="170" y="269" text-anchor="middle" font-family="monospace" font-size="5" fill="#00cc44">$ ping server-b</text>
  <text x="170" y="279" text-anchor="middle" font-family="monospace" font-size="5" fill="#ff4444">Request timeout</text>
  <text x="170" y="289" text-anchor="middle" font-family="monospace" font-size="5" fill="#ff4444">Request timeout</text>
  <rect x="164" y="298" width="12" height="5" rx="1" fill="#1a2535"/>
  <rect x="156" y="302" width="28" height="3" rx="1" fill="#111820"/>
  <!-- Coffee mug -->
  <rect x="236" y="276" width="22" height="24" rx="3" fill="#1a1a2a" stroke="#2a2a3a" stroke-width="1.5"/>
  <rect x="239" y="279" width="16" height="18" rx="2" fill="#111"/>
  <text x="247" y="288" text-anchor="middle" font-family="monospace" font-size="3.5" fill="#4444aa">WORLD'S</text>
  <text x="247" y="295" text-anchor="middle" font-family="monospace" font-size="3" fill="#4444aa">OKAYEST</text>
  <path d="M258,282 Q263,282 263,287 Q263,292 258,292" fill="none" stroke="#2a2a3a" stroke-width="1.5"/>
  <!-- Keyboard -->
  <rect x="270" y="286" width="80" height="10" rx="2" fill="#141820" stroke="#1a2535" stroke-width="1"/>
  <rect x="273" y="288" width="74" height="6" rx="1" fill="#0f1318"/>
  <!-- Sticky notes -->
  <rect x="370" y="280" width="32" height="20" rx="1" fill="#ffff88" transform="rotate(-5,386,290)"/>
  <text x="386" y="289" text-anchor="middle" font-family="monospace" font-size="3.5" fill="#333" transform="rotate(-5,386,290)">reboot</text>
  <text x="386" y="296" text-anchor="middle" font-family="monospace" font-size="3.5" fill="#333" transform="rotate(-5,386,290)">server B</text>
  <text x="386" y="303" text-anchor="middle" font-family="monospace" font-size="3" fill="#888" transform="rotate(-5,386,290)">DO NOT</text>
  <rect x="408" y="278" width="28" height="18" rx="1" fill="#ffcc44" transform="rotate(3,422,287)"/>
  <text x="422" y="287" text-anchor="middle" font-family="monospace" font-size="3.5" fill="#444" transform="rotate(3,422,287)">call mgmt</text>
  <text x="422" y="294" text-anchor="middle" font-family="monospace" font-size="3" fill="#888" transform="rotate(3,422,287)">never</text>

  <!-- ── AMBIENT GLOW ─────────────────────────────── -->
  <ellipse cx="129" cy="320" rx="120" ry="30" fill="#001833" opacity="0.2"/>
  <ellipse cx="360" cy="220" rx="100" ry="50" fill="#001020" opacity="0.15"/>
  <ellipse cx="638" cy="200" rx="30" ry="100" fill="#001833" opacity="0.2"/>
</svg>