<svg xmlns="http://www.w3.org/2000/svg" width="680" height="383" viewBox="0 0 680 383">
  <!-- CLUSTER OF FUCKERY — Background: Server Closet -->
  <!-- Dark server room, two racks, patch cables, status LEDs, posters -->

  <!-- Room base -->
  <rect width="680" height="383" fill="#111318"/>
  <rect x="0" y="370" width="680" height="13" fill="#0d0f14"/>
  <rect x="0" y="0" width="680" height="28" fill="#0a0c10"/>

  <!-- Ceiling cable tray -->
  <rect x="60" y="22" width="560" height="8" rx="2" fill="#1a1a28" stroke="#2a2a44" stroke-width="1"/>
  <line x1="100" y1="22" x2="100" y2="30" stroke="#2a2a44" stroke-width="1"/>
  <line x1="200" y1="22" x2="200" y2="30" stroke="#2a2a44" stroke-width="1"/>
  <line x1="300" y1="22" x2="300" y2="30" stroke="#2a2a44" stroke-width="1"/>
  <line x1="400" y1="22" x2="400" y2="30" stroke="#2a2a44" stroke-width="1"/>
  <line x1="500" y1="22" x2="500" y2="30" stroke="#2a2a44" stroke-width="1"/>

  <!-- Fluorescent light fixture -->
  <rect x="200" y="28" width="280" height="10" rx="2" fill="#2a2a30" stroke="#3a3a40" stroke-width="1"/>
  <rect x="205" y="30" width="270" height="6" rx="1" fill="#fffbe0" opacity="0.85"/>
  <ellipse cx="340" cy="60" rx="200" ry="40" fill="#fffbe0" opacity="0.04"/>

  <!-- Floor -->
  <rect x="0" y="370" width="680" height="3" fill="#1a1a20"/>

  <!-- Side walls -->
  <rect x="0" y="28" width="8" height="362" fill="#0d0f14"/>
  <rect x="672" y="28" width="8" height="362" fill="#0d0f14"/>

  <!-- LIGHT SWITCH right wall -->
  <rect x="648" y="120" width="18" height="28" rx="3" fill="#1e2030" stroke="#2a2a44" stroke-width="1.5"/>
  <rect x="652" y="124" width="10" height="8" rx="1" fill="#2a3050"/>
  <rect x="655" y="126" width="4" height="4" rx="0.5" fill="#00ff44" opacity="0.8"/>
  <text x="657" y="158" text-anchor="middle" font-family="monospace" font-size="6" fill="#444">PWR</text>

  <!-- RACK 1 left -->
  <rect x="18" y="38" width="185" height="345" rx="3" fill="#1a1e2c" stroke="#2a2e44" stroke-width="2"/>
  <rect x="20" y="40" width="181" height="16" rx="2" fill="#111" stroke="#333" stroke-width="1"/>
  <text x="110" y="52" text-anchor="middle" font-family="monospace" font-size="8" fill="#556">RACK-01  SRV</text>
  <rect x="24" y="60" width="173" height="11" rx="1" fill="#0a1628" stroke="#1a3a5c" stroke-width="1"/>
  <rect x="24" y="75" width="173" height="11" rx="1" fill="#0a1628" stroke="#1a3a5c" stroke-width="1"/>
  <rect x="24" y="90" width="173" height="24" rx="1" fill="#0d1f0d" stroke="#1a4a1a" stroke-width="1"/>
  <rect x="24" y="118" width="173" height="11" rx="1" fill="#0a1628" stroke="#1a3a5c" stroke-width="1"/>
  <rect x="24" y="133" width="173" height="11" rx="1" fill="#0a1628" stroke="#1a3a5c" stroke-width="1"/>
  <rect x="24" y="148" width="173" height="38" rx="1" fill="#1a0a0a" stroke="#4a1a1a" stroke-width="1"/>
  <rect x="24" y="190" width="173" height="11" rx="1" fill="#0a1628" stroke="#1a3a5c" stroke-width="1"/>
  <rect x="24" y="205" width="173" height="24" rx="1" fill="#0d1f0d" stroke="#1a4a1a" stroke-width="1"/>
  <rect x="24" y="233" width="173" height="11" rx="1" fill="#0a1628" stroke="#1a3a5c" stroke-width="1"/>
  <rect x="24" y="248" width="173" height="11" rx="1" fill="#0a1628" stroke="#1a3a5c" stroke-width="1"/>
  <rect x="24" y="263" width="173" height="11" rx="1" fill="#1a1a28" stroke="#2a2a44" stroke-width="1"/>
  <!-- LEDs rack 1 -->
  <circle cx="34" cy="66" r="3" fill="#00ff44" opacity="0.9"/>
  <circle cx="42" cy="66" r="3" fill="#00ff44" opacity="0.9"/>
  <circle cx="34" cy="81" r="3" fill="#ffaa00" opacity="0.9"/>
  <circle cx="34" cy="97" r="3" fill="#00ff44" opacity="0.9"/>
  <circle cx="42" cy="97" r="3" fill="#00ff44" opacity="0.9"/>
  <circle cx="34" cy="124" r="3" fill="#ff4444" opacity="0.9"/>
  <circle cx="42" cy="124" r="3" fill="#ff4444" opacity="0.9"/>
  <circle cx="34" cy="154" r="3" fill="#ff4444" opacity="0.9"/>
  <circle cx="34" cy="196" r="3" fill="#00ff44" opacity="0.9"/>
  <circle cx="34" cy="210" r="3" fill="#ffaa00" opacity="0.9"/>

  <!-- Patch cables out of rack 1 -->
  <path d="M200,66 Q240,58 280,66" fill="none" stroke="#2255cc" stroke-width="3.5" stroke-linecap="round"/>
  <path d="M200,81 Q235,73 280,81" fill="none" stroke="#cc2222" stroke-width="3.5" stroke-linecap="round"/>
  <path d="M200,97 Q238,89 280,97" fill="none" stroke="#22cc44" stroke-width="3.5" stroke-linecap="round"/>
  <path d="M200,124 Q236,116 280,124" fill="none" stroke="#ccaa22" stroke-width="3.5" stroke-linecap="round"/>
  <path d="M200,154 Q237,146 280,154" fill="none" stroke="#aa22cc" stroke-width="3.5" stroke-linecap="round"/>

  <!-- POSTER: "hang in there (the server won't)" -->
  <rect x="220" y="48" width="120" height="90" rx="2" fill="#f0ece0" stroke="#c8c4b8" stroke-width="2"/>
  <rect x="224" y="52" width="112" height="50" rx="1" fill="#1a1a2a"/>
  <ellipse cx="280" cy="67" rx="12" ry="10" fill="#333"/>
  <line x1="280" y1="77" x2="280" y2="95" stroke="#444" stroke-width="2"/>
  <line x1="280" y1="95" x2="268" y2="100" stroke="#444" stroke-width="2"/>
  <line x1="280" y1="95" x2="292" y2="100" stroke="#444" stroke-width="2"/>
  <line x1="268" y1="82" x2="260" y2="78" stroke="#444" stroke-width="2"/>
  <line x1="292" y1="82" x2="300" y2="78" stroke="#444" stroke-width="2"/>
  <text x="280" y="113" text-anchor="middle" font-family="sans-serif" font-size="7" fill="#555" font-weight="bold">HANG IN THERE</text>
  <text x="280" y="123" text-anchor="middle" font-family="monospace" font-size="6" fill="#888">(the server won't)</text>
  <rect x="276" y="46" width="8" height="6" rx="1" fill="#888"/>

  <!-- POSTER: Uptime trophy -->
  <rect x="360" y="48" width="110" height="80" rx="2" fill="#0a1a0a" stroke="#1a3a1a" stroke-width="2"/>
  <text x="415" y="64" text-anchor="middle" font-family="monospace" font-size="7" fill="#4a8a4a">UPTIME TROPHY</text>
  <text x="415" y="78" text-anchor="middle" font-family="monospace" font-size="18" fill="#22cc44">99.1%</text>
  <text x="415" y="96" text-anchor="middle" font-family="monospace" font-size="6" fill="#888">*excl. planned outages</text>
  <text x="415" y="108" text-anchor="middle" font-family="monospace" font-size="6" fill="#666">*excl. that one tuesday</text>
  <rect x="411" y="46" width="8" height="6" rx="1" fill="#555"/>

  <!-- RACK 2 right -->
  <rect x="477" y="38" width="185" height="345" rx="3" fill="#1a1e2c" stroke="#2a2e44" stroke-width="2"/>
  <rect x="479" y="40" width="181" height="16" rx="2" fill="#111" stroke="#333" stroke-width="1"/>
  <text x="569" y="52" text-anchor="middle" font-family="monospace" font-size="8" fill="#556">RACK-02  NET</text>
  <rect x="483" y="60" width="173" height="11" rx="1" fill="#0a1628" stroke="#1a3a5c" stroke-width="1"/>
  <rect x="483" y="75" width="173" height="11" rx="1" fill="#0a1628" stroke="#1a3a5c" stroke-width="1"/>
  <rect x="483" y="90" width="173" height="24" rx="1" fill="#0d1f0d" stroke="#1a4a1a" stroke-width="1"/>
  <rect x="483" y="118" width="173" height="11" rx="1" fill="#0a1628" stroke="#1a3a5c" stroke-width="1"/>
  <rect x="483" y="133" width="173" height="38" rx="1" fill="#1a0a0a" stroke="#4a1a1a" stroke-width="1"/>
  <rect x="483" y="175" width="173" height="11" rx="1" fill="#0a1628" stroke="#1a3a5c" stroke-width="1"/>
  <rect x="483" y="190" width="173" height="11" rx="1" fill="#0a1628" stroke="#1a3a5c" stroke-width="1"/>
  <circle cx="493" cy="66" r="3" fill="#00ff44" opacity="0.9"/>
  <circle cx="501" cy="66" r="3" fill="#00ff44" opacity="0.9"/>
  <circle cx="493" cy="81" r="3" fill="#ffaa00" opacity="0.9"/>
  <circle cx="493" cy="97" r="3" fill="#00ff44" opacity="0.9"/>
  <circle cx="493" cy="124" r="3" fill="#ff4444" opacity="0.9"/>
  <circle cx="501" cy="124" r="3" fill="#ff4444" opacity="0.9"/>
  <circle cx="493" cy="139" r="3" fill="#ff4444" opacity="0.9"/>
  <circle cx="493" cy="181" r="3" fill="#00ff44" opacity="0.9"/>
  <path d="M477,66 Q440,58 400,66" fill="none" stroke="#2255cc" stroke-width="3.5" stroke-linecap="round"/>
  <path d="M477,81 Q441,73 400,81" fill="none" stroke="#cc2222" stroke-width="3.5" stroke-linecap="round"/>
  <path d="M477,97 Q439,89 400,97" fill="none" stroke="#22cc44" stroke-width="3.5" stroke-linecap="round"/>

  <!-- Sticky note on rack 2: DO NOT REBOOT until Friday — Dave (left co.) -->
  <rect x="500" y="290" width="70" height="52" rx="2" fill="#ffee88" stroke="#e8d840" stroke-width="1" transform="rotate(-2,535,316)"/>
  <text x="535" y="307" text-anchor="middle" font-family="monospace" font-size="7" fill="#664" transform="rotate(-2,535,316)">DO NOT</text>
  <text x="535" y="318" text-anchor="middle" font-family="monospace" font-size="7" fill="#664" transform="rotate(-2,535,316)">REBOOT</text>
  <text x="535" y="329" text-anchor="middle" font-family="monospace" font-size="7" fill="#884" transform="rotate(-2,535,316)">until Friday</text>
  <text x="535" y="340" text-anchor="middle" font-family="monospace" font-size="6" fill="#aaa" transform="rotate(-2,535,316)">— Dave (left co.)</text>

  <!-- Fire extinguisher -->
  <rect x="650" y="300" width="18" height="50" rx="4" fill="#cc2222" stroke="#aa1111" stroke-width="2"/>
  <rect x="652" y="296" width="14" height="8" rx="2" fill="#882222" stroke="#661111" stroke-width="1"/>

  <!-- Floor cable runs between racks -->
  <path d="M203,350 Q300,344 395,350 Q460,354 475,350" fill="none" stroke="#2255cc" stroke-width="4" stroke-linecap="round" opacity="0.7"/>
  <path d="M203,360 Q295,354 390,360 Q455,364 475,360" fill="none" stroke="#cc2222" stroke-width="4" stroke-linecap="round" opacity="0.7"/>
  <path d="M203,370 Q298,364 393,370 Q458,374 475,370" fill="none" stroke="#22cc44" stroke-width="4" stroke-linecap="round" opacity="0.7"/>
</svg>
